/* XPM */
static char * B1[] = {
"32 28 5 1",
"       c black",
".      c gray94",
"X      c white",
"o      c #d1b499",
"O      c #6dacff",
"                                ",
" XXXXXXXXXXXXXXXXXXXXXXXXXXXXXX ",
" X.                 ..........X ",
" X. oooo OOOOOOOOOOO .........X ",
" X. oooo OOOOOOOOOOOO ........X ",
" X. oooo OOOOOOOOOOOOO .......X ",
" X. oooo OOOOOOOOOOOOO .......X ",
" X. oooo OOOOOOOOOOOOO .......X ",
" X. oooo OOOOOOOOOOOOO .......X ",
" X. oooo OOOOOOOOOOOOO .......X ",
" X. oooo OOOOOOOOOOOO ........X ",
" X. oooo OOOOOOOOOOO .........X ",
" X. oooo            ..........X ",
" X. oooo .....................X ",
" X. oooo .....................X ",
" X. oooo            ..........X ",
" X. oooo OOOOOOOOOOO .........X ",
" X. oooo OOOOOOOOOOOO ........X ",
" X. oooo OOOOOOOOOOOOO .......X ",
" X. oooo OOOOOOOOOOOOO .......X ",
" X. oooo OOOOOOOOOOOOO .......X ",
" X. oooo OOOOOOOOOOOOO .......X ",
" X. oooo OOOOOOOOOOOOO .......X ",
" X. oooo OOOOOOOOOOOO ........X ",
" X. oooo OOOOOOOOOOO .........X ",
" X.                 ..........X ",
" XXXXXXXXXXXXXXXXXXXXXXXXXXXXXX ",
"                                "};
