/* XPM */
static char * inapplicable_xpm[] = {
"1 14 11 1",
" 	c None",
".	c #909090",
"+	c #999999",
"@	c #A0A0A0",
"#	c #AAAAAA",
"$	c #B0B0B0",
"%	c #BBBBBB",
"&	c #C0C0C0",
"*	c #CCCCCC",
"=	c #D0D0D0",
"-	c #DDDDDD",
".",
".",
".",
".",
".",
"+",
"@",
"#",
"$",
"%",
"&",
"*",
"=",
"-"};
