/* XPM */
static char * l_arr[] = {
"68 16 2 1",
"       c gray94",
".      c black",
"                                                                    ",
"                                                                    ",
"                                                                    ",
"                                .                                   ",
"                               ..                                   ",
"                              ...                                   ",
"                             ....                                   ",
"                            .................                       ",
"                             ....                                   ",
"                              ...                                   ",
"                               ..                                   ",
"                                .                                   ",
"                                                                    ",
"                                                                    ",
"                                                                    ",
"                                                                    "}
