/* XPM */
static char * B1[] = {
"1 14 10 1",
"$      c #ff9999",
"?      c #ff8888",
"#      c #ff7777",
"%      c #ee6666",
"M      c #ee5555",
"X      c #ee4444",
"*      c #dd3333",
"+      c #dd2222",
"-      c #dd1111",
".      c #cc0000",
"$",
"?",
"#",
"%",
"M",
"X",
"*",
"+",
"-",
".",
".",
".",
".",
"."};

