/* XPM */
static char * tab2_xpm[] = {
"84 32 88 1",
" 	c None",
".	c #676767",
"+	c #666666",
"@	c #656565",
"#	c #646464",
"$	c #636363",
"%	c #EAF1FF",
"&	c #E9F0FF",
"*	c #E9F1FF",
"=	c #E8F0FF",
"-	c #E8F1FF",
";	c #E8EFFF",
">	c #E7F0FF",
",	c #E7EFFF",
"'	c #E6EFFF",
")	c #E6F0FF",
"!	c #E5EFFF",
"~	c #E5EEFF",
"{	c #E6EEFF",
"]	c #E4EEFF",
"^	c #E4EDFF",
"/	c #E3EEFF",
"(	c #E4EFFF",
"_	c #E3EDFF",
":	c #E2EEFF",
"<	c #E2EDFF",
"[	c #E1EDFF",
"}	c #E2ECFF",
"|	c #E1ECFF",
"1	c #E0ECFF",
"2	c #E0EDFF",
"3	c #DFECFF",
"4	c #E0EBFF",
"5	c #DFEBFF",
"6	c #DEEBFF",
"7	c #DEECFF",
"8	c #DDEAFF",
"9	c #DDEBFF",
"0	c #626262",
"a	c #DCEBFF",
"b	c #DCEAFF",
"c	c #DBEAFF",
"d	c #DCE9FF",
"e	c #DEEAFF",
"f	c #DBE9FF",
"g	c #DAE9FF",
"h	c #DAEAFF",
"i	c #D9E9FF",
"j	c #D9E8FF",
"k	c #D8E8FF",
"l	c #DAE8FF",
"m	c #D8E9FF",
"n	c #D7E8FF",
"o	c #D8E7FF",
"p	c #D7E7FF",
"q	c #D6E7FF",
"r	c #D5E7FF",
"s	c #D6E6FF",
"t	c #D5E6FF",
"u	c #D6E8FF",
"v	c #D4E6FF",
"w	c #D4E7FF",
"x	c #D3E6FF",
"y	c #D3E5FF",
"z	c #D2E5FF",
"A	c #D2E6FF",
"B	c #D4E5FF",
"C	c #D1E5FF",
"D	c #D2E4FF",
"E	c #D1E4FF",
"F	c #D0E5FF",
"G	c #D0E4FF",
"H	c #CFE4FF",
"I	c #CFE3FF",
"J	c #CEE3FF",
"K	c #CEE2FF",
"L	c #CDE3FF",
"M	c #CDE2FF",
"N	c #CEE4FF",
"O	c #CCE2FF",
"P	c #CCE1FF",
"Q	c #CBE2FF",
"R	c #CBE1FF",
"S	c #CAE2FF",
"T	c #CAE1FF",
"U	c #CCE3FF",
"V	c #C9E1FF",
"W	c #CAE0FF",
".............+++++++++++++++++++@@@@@@@@@@@@@@@@@@#################$$$$$$$$$$$$$$$$$",
".%%%%%%%%%%%%%%%%%%%%%%%%%%%%%%%%%%%%%%%%%%%%&******==&&-*=-=======;>,>,,>,,>>>'')'$",
".%%%%%%%%%%%%%%%%%%%%%*%***%**%&&**=*==&========>>>>>,>,,,,,)'')''''''!''!'!!~~~!!!$",
".%%%%*%&%****&*&&*=&-=-=====;=,,,=>>,>>,',)),'''''''~!{'!'~!~!~]!!~]~]~]]]]]]^^]///$",
".&=-=&===;===>>,>,,,,,>',,''',''{''!'!'!{~~~~]]]~](]~]]]_/^_^////_//:/_<_:/_<<<<<<[$",
".,,>>'',,'''''!!'{'{{{~'!~]~!~!]~(]]]^]]/]_/^/]_/:</:_:<_<_<<<<[[}|<|[|[[||1|1|2111$",
".!~!!~!]~]!~~~~~~]]]]]]]/^__//_:/_:_:<<<:<[<<[[}<}<[<||1||||[1111111134144443566655$",
".]]]]]//__//___/__/<_<<<<<[[[<|[[}[|[[2|1[1|1|11111413335353353675665666689996969890",
".__<<<[[<<[<|[<|[|1||11[121111111433153333555756656666666996899688a898aabb8bbcdbbdc0",
".|121||11111131411345553566655567666e666998e88888a88b888bbbbbbbbfccfcccfghfgfggcfgg0",
".35533565676666666696699888998a88b9bbbbbbbbcbdbffccfffcfhcgggfgggggiiiiijiiijiiikjk0",
".866989ee998b8a8ababbbbbcbbfccccfcffgcffffggggggiliggggijkjjmjmkjmmkknokkkknnnknnnp0",
".bbbfbbbbbbcccccfgffgggggggggigggljjlliijjiikkmkkkkkkknknknnnnpqnpppqqppqqqqqrqqstt0",
".fgghgggggglgljjliljijjjkjjjkkkkkknnnnpnpnpnpppppuqqpqqqqqqqrrrqtrtrvttvwvwttvvvvvx0",
".ijiiijmjkjkkkkkkooknnnkpnnnnpqqupquqqqrqqrrqttttrvrtrtvtvrvvvvvvvvyxxxxxzxzyxzAzyA0",
".nkpoonpnpnqqnupqpqqqqqrqqtqrqtrwtrrvtvvvvvvxBxvBvvxxyxxyyxyAyAzAzzzCzCzCCzCzDECCEE0",
".qsqsqrrrtqrrtrttvvvvvvvvxxxxvvvxBBxyxAzxAzzzyyzzzzzCEDEDECEEFEFECFEEGGGGGGGGHHHHGH0",
".vvvvvvvvxxvxvBByxxyzAyxAyyyzzzzDzzzCDEECEEEEEEGGGGGEGGGGGHHIGHIIHIIIIIJHJJJJJKJLJM0",
".yyxzyyyzyzzzzzECDCCECzCCECFGEGGGGGGHHGHGGHIIIIHHIHIHHJJJNJJJKJJKLLLMMMMLOLLMLLMOOO0",
".CDCCCEEEEEEEGGGEGGGGHHHHHHIHIHIJIJJINNJJJJJJJJJLMLMMLMOMLOOLOOOOPOOOPQRQQRQRRRSQRT0",
".GGHHGHHHIHIHJJJNIHJIJJJLJLLLMJLMLMMLOOLMOOOMOOOPOQQQQOQRRQQRTTRTQTTTRTTTTTTTTTTTTT0",
".JJJLJJJLKLJMJLLMOLMMOLMOMOOOOOQQPQOOQQRRRSSTTTTTTTTTTTTTTTTTTTTTTTTTTTTTTTTTTTTTTT0",
".MMMOMOUOOOOOORQOORQQRRRRRTTTRTTTTTTTTTTTTTTTTTTTTTTTTTTTTTTTTTTTTTTTTTTTTTTTTTTTTT0",
".RQRQQQTRRSTRRTTTTTTTTTTTTTTTTTTTTTTTTTTTTTTTTTTTTTTTTTTTTTTTTTTTTTTTTTTTTTTTTTTTTT0",
".TTTTTTTTTTTVTTTTTTTTTTTTTTTTTTTTTTTTTTTTTTTTTTTTTTTTTTTTTTTTTTTTTTTTTTTTTTTTTTTTTT0",
".TTTTTTTTTTTTTTTTTTTTTTTTTTTTTTTTTTTTTTTTTTTTTTTTTTTTTTTTTTTTTTTTTTTTTVTTTTTTTTTTTT0",
".TTTTTTTTTTTTTTTTTTTTTTTTTTTTTTTTTTTTTTTTTTTTTTTTTTTTTTTTTTTTTTTTTTTTTTTTTTTTTTTTTT0",
".TTTTTTTTTTTTTTTTTTTTTTTTTTTTTTTTTTTTTTTTTTTTTTTTTTTTTTTTTTTTTTTTTTTTTTTTTTTTTTTTTT0",
".TTTTTTTTTTTTTTTTTTTTTTTTTTTTTTTTTTTTTTTTTTTTTTTTTTTTTTTTTTTTTTTTTTTTTTTTTTTTTTTTTT0",
".TTTTVTTTTTTTTTTTTTTTTTTTTTTTTTTTTTTTTTTTTTTTTTTTTTTTTTTTTTTTTTTTTTTTTTTTTTTTTTTTTT0",
".TTTTTTTTTTTTTTTTTTTTTTTTWTTTTTTTTTTTTTTTTVTTTTTTTTTTTTTTTTTVTTTTTTTTTTTTTTTTTTTTTT0",
".TTTTTTTTTTTTTTTTTTTTTTTTTTTTTTTTTTTTTTTTTTTTTTTTTTTTTTTTTTTTTTTTTTTTTTTTTTTTTTTTTT0"};
