/* XPM */
static char * tabgrey_xpm[] = {
"84 32 24 1",
" 	c None",
".	c #676767",
"+	c #666666",
"@	c #656565",
"#	c #646464",
"$	c #636363",
"%	c #F4F4F4",
"&	c #F3F3F3",
"*	c #F2F2F2",
"=	c #F1F1F1",
"-	c #F0F0F0",
";	c #EFEFEF",
">	c #EEEEEE",
",	c #626262",
"'	c #EDEDED",
")	c #ECECEC",
"!	c #EBEBEB",
"~	c #EAEAEA",
"{	c #E9E9E9",
"]	c #E8E8E8",
"^	c #E7E7E7",
"/	c #E6E6E6",
"(	c #E5E5E5",
"_	c #E4E4E4",
".............+++++++++++++++++++@@@@@@@@@@@@@@@@@@#################$$$$$$$$$$$$$$$$$",
".%%%%%%%%%%%%%%%%%%%%%%%%%%%%%%%%%%%%%%%%%%%%%%%%%%%&&%%&%&&&&&&&&&&&&&&&&&&&&&****$",
".%%%%%%%%%%%%%%%%%%%%%%%%%%%%%%%%%%&%&&%&&&&&&&&&&&&&&&&&&&&***********************$",
".%%%%%%%%%%%%%%%%%&%&&&&&&&&&&&&&&&&&&&&*&**&******************=***=*=*============$",
".%&&&%&&&&&&&&&&&&&&&&&*&&***&***************===*===*===============-==-=-==-------$",
".&&&&**&&*****************=****=*================--=-=--=-=----------------;-;-;;;;$",
".******=*=*******==============-==-=-------------------;-----;;;;;;;;;;;;;;;;;>>>;;$",
".==================-=-----------------;-;-;-;-;;;;;;;;;;;;;;;;;>>;>>;>>>>>>>>>>>>>>,",
".==---------------;--;;-;;;;;;;;;;;;;;;;;;;;;>;>>;>>>>>>>>>>>>>>>>'>>>''''>'''''''',",
".-;;;--;;;;;;;;;;;;;;;;;;>>>;;;>>>>>>>>>>>>>>>>>>'>>'>>>''''''''''''''''))')'))'')),",
".;;;;;;>;>>>>>>>>>>>>>>>>>>>>>'>>'>''''''''''''''''''''')')))'))))))))))))))))))!)!,",
".>>>>>>>>>>>'>'>'''''''''''''''''''')''''')))))))))))))))!))!)!!)!!!!!!!!!!!!!!!!!!,",
".'''''''''''''''')''))))))))))))))))))))))))!!!!!!!!!!!!!!!!!!!~!!!!~~!!~~~~~~~~~~~,",
".'))))))))))))))))))))))!)))!!!!!!!!!!!!!!!!!!!!!~~~!~~~~~~~~~~~~~~~{~~{{{{~~{{{{{{,",
".))))))!)!)!!!!!!!!!!!!!!!!!!!~~~!~~~~~~~~~~~~~~~~{~~~~{~{~{{{{{{{{{{{{{{]{]{{]]]{],",
".!!!!!!!!!!~~!~!~!~~~~~~~~~~~~~~{~~~{~{{{{{{{{{{{{{{{{{{{{{{]{]]]]]]]]]]]]]]]]]]]]],",
".~~~~~~~~~~~~~~~~{{{{{{{{{{{{{{{{{{{{{]]{]]]]{{]]]]]]]]]]]]]]^]^]]^]]^^^^^^^^^^^^^^,",
".{{{{{{{{{{{{{{{{{{{]]{{]{{{]]]]]]]]]]]]]]]]]]]^^^^^]^^^^^^^^^^^^^^^^^^/^//////////,",
".{{{]{{{]{]]]]]]]]]]]]]]]]]^^]^^^^^^^^^^^^^^^^^^^^^^^^///////////////////(//////(((,",
".]]]]]]]]]]]]^^^]^^^^^^^^^^^^^^^/^//^//////////////////(//((/((((((((((((((((((_((_,",
".^^^^^^^^^^^^////^^/^////////////////((//(((/((((((((((((((((__(_(___(_____________,",
".////////////////(///(//(/((((((((((((((((_________________________________________,",
".///(/((((((((((((((((((((___(_____________________________________________________,",
".((((((_((__((_____________________________________________________________________,",
".__________________________________________________________________________________,",
".__________________________________________________________________________________,",
".__________________________________________________________________________________,",
".__________________________________________________________________________________,",
".__________________________________________________________________________________,",
"....................................................................................",
"....................................................................................",
"...................................................................................."};
