/* XPM */
static char * topbar_xpm[] = {
"1 32 32 1",
" 	c None",
".	c #D3E6FF",
"+	c #D2E5FE",
"@	c #D1E4FD",
"#	c #D0E3FD",
"$	c #CFE2FC",
"%	c #CEE1FC",
"&	c #CCE1FB",
"*	c #CBE0FB",
"=	c #CADFFB",
"-	c #C9DFFA",
";	c #C8DEF9",
">	c #C8DDF9",
",	c #C7DCF8",
"'	c #C6DBF8",
")	c #C5DBF7",
"!	c #C4DAF7",
"~	c #C2D9F7",
"{	c #C2D8F6",
"]	c #C1D8F5",
"^	c #BFD7F5",
"/	c #BFD6F4",
"(	c #BED5F4",
"_	c #BDD5F4",
":	c #BCD4F3",
"<	c #BBD3F3",
"[	c #BAD3F3",
"}	c #B9D2F2",
"|	c #B8D1F1",
"1	c #B8D0F1",
"2	c #B6CFF0",
"3	c #B6CEF0",
".",
".",
"+",
"@",
"#",
"$",
"%",
"&",
"*",
"=",
"-",
";",
">",
",",
"'",
")",
"!",
"~",
"{",
"]",
"^",
"/",
"(",
"_",
":",
"<",
"[",
"}",
"|",
"1",
"2",
"3"};
